<svg width="24" height="24" viewBox="0 0 24 24" fill="none" xmlns="http://www.w3.org/2000/svg">
<path opacity="0.4" d="M22 11.9998C22 17.5238 17.523 21.9998 12 21.9998C6.477 21.9998 2 17.5238 2 11.9998C2 6.47782 6.477 1.99982 12 1.99982C17.523 1.99982 22 6.47782 22 11.9998Z" fill="#F2994A"/>
<path d="M11.9951 14.9285C12.4881 14.9285 12.8799 15.3215 12.8799 15.8035C12.8799 16.2855 12.4879 16.6785 12.0049 16.6785C11.52 16.6783 11.125 16.2854 11.125 15.8035C11.125 15.3215 11.5161 14.9285 11.9951 14.9285ZM11.9951 7.33569C12.4771 7.33569 12.8701 7.72869 12.8701 8.21069V12.6306C12.8701 13.1126 12.4771 13.5056 11.9951 13.5056C11.5131 13.5056 11.1201 13.1126 11.1201 12.6306V8.21069C11.1201 7.72869 11.5131 7.33569 11.9951 7.33569Z" fill="#F2994A"/>
</svg>
